---
config:
  layout: elk
---
erDiagram
    _spatial {
        int id
        varchar layer
        varchar name
        geometry geom
    }
    _spatial_attr {
        varchar layer
        int id
        varchar fld
        double val_dbl
        int val_int
        varchar val_chr
        date val_date
        bool val_lgl
    }
    bird_mammal_behavior {
        varchar behavior_code PK
        varchar behavior
        varchar description
    }
    bird_mammal_species {
        varchar species_code PK
        varchar common_name
        varchar scientific_name
        int itis_id
        bool is_bird
        bool is_mammal
        bool is_fish
        bool is_large_bird
        bool is_unidentified
        bool include_flag
        varchar nmfs_code
        varchar comment
    }
    cruise {
        uuid cruise_uuid
        date date_ym
        varchar ship_key FK
        varchar _source_file
        int _source_row
        timestamp _ingested_at
        varchar _source_uuid
        varchar cruise_key PK
        int year
        int month
        varchar ship_name
        varchar ship_nodc
        bigint ichthyo
        bigint bottle
        bigint ctd_cast
        bigint dic
    }
    dataset {
        varchar dataset_key
        varchar provider
        varchar dataset
        varchar dataset_name
        varchar description
        varchar citation_main
        varchar link_calcofi_org
        varchar link_data_source
        varchar license
        varchar pi_names
    }
    grid {
        varchar grid_key PK
        double station
        double line
        varchar shore
        varchar pattern
        int spacing
        varchar zone
        double area_km2
        geometry geom
        geometry geom_ctr
    }
    lookup {
        int lookup_id PK
        varchar lookup_type
        int lookup_num
        varchar lookup_chr
        varchar description
        varchar _source_file
        int _source_row
        varchar _ingested_at
        varchar _source_uuid
    }
    measurement_type {
        varchar measurement_type PK
        varchar description
        varchar units
        varchar is_canonical
        varchar _source_column
        varchar _source_table
        varchar _source_datasets
        varchar _qual_column
        varchar _prec_column
    }
    obs {
        bigint obs_id
        varchar realm
        varchar dataset_key FK
        varchar sample_key FK
        varchar grid_key FK
        varchar cruise_key FK
        double latitude
        double longitude
        timestamp datetime
        double depth_min_m
        double depth_max_m
        varchar taxon_id
        varchar life_stage
        varchar measurement_type FK
        double measurement_value
        varchar measurement_qual
        double measurement_prec
        ubigint hex_id
    }
    obs_ctd_full {
        bigint obs_id
        varchar realm
        varchar dataset_key FK
        varchar sample_key FK
        varchar grid_key
        varchar cruise_key
        double latitude
        double longitude
        timestamp datetime
        double depth_min_m
        double depth_max_m
        varchar taxon_id
        varchar life_stage
        varchar measurement_type FK
        double measurement_value
        varchar measurement_qual
        double measurement_prec
        ubigint hex_id
    }
    obs_freq {
        bigint obs_freq_id
        varchar dataset_key
        varchar sample_key FK
        varchar taxon_id
        varchar life_stage
        varchar measurement_type FK
        double bin_value
        varchar bin_label
        int count
        varchar measurement_qual
    }
    phyto_taxon {
        varchar species_code PK
        varchar taxa
        varchar species
        int aphia_id
        varchar scientific_name_accepted
        varchar rank
        varchar kingdom
        varchar phylum
    }
    region {
        varchar region_key PK
        varchar description
        double latitude
        double longitude
        int n_stations
        varchar station_codes
    }
    sample {
        varchar sample_key
        varchar sample_type
        varchar parent_sample_key FK
        varchar root_sample_key
        varchar dataset_key FK
        varchar grid_key FK
        varchar cruise_key FK
        double latitude
        double longitude
        timestamp datetime
        double depth_min_m
        double depth_max_m
        geometry geom
    }
    sample_measurement {
        bigint sample_measurement_id
        varchar sample_key FK
        varchar dataset_key FK
        varchar measurement_type FK
        double measurement_value
        varchar measurement_qual
    }
    ship {
        varchar ship_key PK
        varchar ship_name
        varchar ship_nodc
        varchar _source_file
        int _source_row
        timestamp _ingested_at
        varchar _source_uuid
    }
    species {
        smallint species_id PK
        varchar scientific_name
        int itis_id
        int worms_id
        varchar common_name
        varchar _source_file
        int _source_row
        timestamp _ingested_at
        varchar _source_uuid
        int gbif_id
    }
    taxa_rank {
        varchar taxonRank PK
        smallint rank_order
    }
    taxon {
        varchar authority
        int taxonID PK
        int acceptedNameUsageID
        int parentNameUsageID
        varchar scientificName
        varchar taxonRank FK
        varchar taxonomicStatus
        varchar scientificNameAuthorship
    }
    zoodb_taxon {
        int taxon_id PK
        varchar taxon_zoodb
        varchar taxon_slug
        int aphia_id
        varchar scientific_name
        varchar rank
        varchar taxon_status
        varchar kingdom
        varchar phylum
        varchar class
        varchar order_taxon
        varchar family
    }
    zooscan_taxon {
        int taxon_id PK
        varchar taxon_zooscan
        varchar taxon_slug
        int aphia_id
        varchar scientific_name
        varchar rank
        varchar taxon_status
        varchar taxon_note
        varchar kingdom
        varchar phylum
        varchar class
        varchar order_taxon
        varchar family
    }
    ship ||--o{ cruise : "ship_key"
    taxa_rank ||--o{ taxon : "taxonRank"
    sample ||--o{ obs : "sample_key"
    dataset ||--o{ obs : "dataset_key"
    grid ||--o{ obs : "grid_key"
    cruise ||--o{ obs : "cruise_key"
    measurement_type ||--o{ obs : "measurement_type"
    sample ||--o{ sample : "parent_sample_key"
    dataset ||--o{ sample : "dataset_key"
    grid ||--o{ sample : "grid_key"
    cruise ||--o{ sample : "cruise_key"
    sample ||--o{ obs_freq : "sample_key"
    measurement_type ||--o{ obs_freq : "measurement_type"
    sample ||--o{ sample_measurement : "sample_key"
    dataset ||--o{ sample_measurement : "dataset_key"
    measurement_type ||--o{ sample_measurement : "measurement_type"
    sample ||--o{ obs_ctd_full : "sample_key"
    dataset ||--o{ obs_ctd_full : "dataset_key"
    measurement_type ||--o{ obs_ctd_full : "measurement_type"
    classDef _f0d2e8 stroke:#f0d2e8,stroke-width:3px
    class bird_mammal_species,bird_mammal_behavior _f0d2e8
    classDef _f5cad9 stroke:#f5cad9,stroke-width:3px
    classDef _e8e8e8 stroke:#e8e8e8,stroke-width:3px
    class measurement_type,cruise,dataset,sample,obs,obs_freq,sample_measurement,obs_ctd_full _e8e8e8
    classDef _e0ccf0 stroke:#e0ccf0,stroke-width:3px
    classDef _ffd2bb stroke:#ffd2bb,stroke-width:3px
    classDef _e0bbf0 stroke:#e0bbf0,stroke-width:3px
    classDef _b5e8b0 stroke:#b5e8b0,stroke-width:3px
    class phyto_taxon,region _b5e8b0
    classDef _d2f0bb stroke:#d2f0bb,stroke-width:3px
    classDef _d9c2f0 stroke:#d9c2f0,stroke-width:3px
    class zoodb_taxon _d9c2f0
    classDef _c2e8f0 stroke:#c2e8f0,stroke-width:3px
    class zooscan_taxon _c2e8f0
    classDef _bbe0f0 stroke:#bbe0f0,stroke-width:3px
    classDef _f0e8bb stroke:#f0e8bb,stroke-width:3px
    classDef _cdebc6 stroke:#cdebc6,stroke-width:3px
    class ship,species,taxon,taxa_rank,lookup,grid _cdebc6
    classDef _cfe8ea stroke:#cfe8ea,stroke-width:3px
    class _spatial,_spatial_attr _cfe8ea
