---
config:
  layout: elk
---
erDiagram
    cruise {
        uuid cruise_uuid
        date date_ym
        varchar ship_key FK
        varchar _source_file
        int _source_row
        timestamp _ingested_at
        varchar _source_uuid
        varchar cruise_key PK
    }
    dataset {
        varchar provider
        varchar dataset
        varchar dataset_name
        varchar description
        varchar citation_main
        bool citation_others
        varchar link_calcofi_org
        varchar link_data_source
        varchar link_others
        varchar tables
        varchar coverage_temporal
        varchar coverage_spatial
        varchar license
        varchar pi_names
    }
    grid {
        varchar grid_key
        double station
        double line
        varchar shore
        varchar pattern
        int spacing
        varchar zone
        double area_km2
        geometry geom
        geometry geom_ctr
    }
    ichthyo {
        varchar ichthyo_uuid PK
        varchar net_uuid FK
        double species_id FK
        varchar life_stage
        varchar measurement_type
        double measurement_value
        double tally
        varchar _source_file
        int _source_row
        timestamp _ingested_at
        varchar _source_uuid
    }
    lookup {
        int lookup_id PK
        varchar lookup_type
        int lookup_num
        varchar lookup_chr
        varchar description
        varchar _source_file
        int _source_row
        varchar _ingested_at
        varchar _source_uuid
    }
    net {
        uuid net_uuid PK
        uuid tow_uuid FK
        varchar side
        double std_haul_factor
        double vol_sampled_m3
        double prop_sorted
        double smallplankton
        double totalplankton
        varchar _source_file
        int _source_row
        timestamp _ingested_at
        varchar _source_uuid
    }
    segment {
        varchar cruise_key
        uuid site_uuid_beg
        uuid site_uuid_end
        double lon_beg
        double lat_beg
        double lon_end
        double lat_end
        timestamp time_beg
        timestamp time_end
        double time_hr
        double length_km
        double km_per_hr
        geometry geom
        int segment_id
    }
    ship {
        varchar ship_key PK
        varchar ship_name
        varchar ship_nodc
        varchar _source_file
        int _source_row
        timestamp _ingested_at
        varchar _source_uuid
    }
    site {
        uuid site_uuid PK
        uuid cruise_uuid
        smallint orderocc
        double longitude
        double latitude
        double line
        double station
        varchar _source_file
        int _source_row
        timestamp _ingested_at
        varchar _source_uuid
        varchar cruise_key FK
        geometry geom
        varchar grid_key
        varchar site_key
    }
    species {
        smallint species_id PK
        varchar scientific_name
        int itis_id
        int worms_id
        varchar common_name
        varchar _source_file
        int _source_row
        timestamp _ingested_at
        varchar _source_uuid
        int gbif_id
    }
    taxa_rank {
        varchar taxonRank PK
        smallint rank_order
    }
    taxon {
        varchar authority
        int taxonID PK
        int acceptedNameUsageID
        int parentNameUsageID
        varchar scientificName
        varchar taxonRank FK
        varchar taxonomicStatus
        varchar scientificNameAuthorship
    }
    tow {
        uuid tow_uuid PK
        uuid site_uuid FK
        varchar tow_type_key
        smallint tow_number
        timestamp time_start
        varchar _source_file
        int _source_row
        timestamp _ingested_at
        varchar _source_uuid
    }
    net ||--o{ ichthyo : "net_uuid"
    species ||--o{ ichthyo : "species_id"
    tow ||--o{ net : "tow_uuid"
    site ||--o{ tow : "site_uuid"
    cruise ||--o{ site : "cruise_key"
    ship ||--o{ cruise : "ship_key"
    taxa_rank ||--o{ taxon : "taxonRank"
