---
config:
  layout: elk
---
erDiagram
    dic_sample {
        varchar expocode
        varchar ship_name
        timestamp datetime_start_utc
        varchar site_key
        double latitude
        double longitude
        double depth_m
        bigint cast_id
        bigint bottle_id
    }
    dic_measurement {
        bigint dic_measurement_id PK
        varchar expocode
        varchar site_key
        timestamp datetime_start_utc
        double depth_m
        double latitude
        double longitude
        int cast_id
        int bottle_id
        varchar measurement_type FK
        double measurement_value
        varchar measurement_qual
    }
    dic_summary {
        varchar site_key
        timestamp datetime_start_utc
        double depth_m
        double latitude
        double longitude
        varchar measurement_type FK
        double avg
        double stddev
        bigint n_obs
        int cast_id
        int bottle_id
    }
    measurement_type {
        varchar measurement_type PK
        varchar description
        varchar units
        double valid_min
        double valid_max
        double valid_depth_min_m
        double valid_depth_max_m
        varchar derivation
        bool is_canonical
        varchar _source_column
        varchar _source_table
        varchar _source_datasets
        varchar _qual_column
        varchar _prec_column
        varchar grain
        varchar denominator
        varchar category
        varchar variable
        varchar nerc_p01
        varchar units_nerc_p06
    }
    dataset {
        varchar provider
        varchar dataset
        varchar dataset_name
        varchar dataset_name_short
        varchar category
        varchar color
        varchar description
        varchar citation_main
        varchar citation_others
        varchar link_calcofi_org
        varchar link_data_source
        varchar link_others
        varchar tables
        varchar coverage_temporal
        varchar coverage_spatial
        varchar license
        varchar pi_names
        varchar doi
        varchar license_url
        varchar acknowledgement
        varchar contact
    }
    measurement_type ||--o{ dic_measurement : "measurement_type"
    measurement_type ||--o{ dic_summary : "measurement_type"
    classDef lightblue stroke:#ADD8E6,stroke-width:3px
    class dic_sample,dic_measurement,dic_summary lightblue
    classDef lightyellow stroke:#FFFFE0,stroke-width:3px
    class measurement_type lightyellow
    classDef white stroke:#FFFFFF,stroke-width:3px
    class dataset white
