---
config:
  layout: elk
---
erDiagram
    _spatial {
        int id
        varchar layer
        varchar name
        geometry geom
    }
    _spatial_attr {
        varchar layer
        int id
        varchar fld
        double val_dbl
        int val_int
        varchar val_chr
        date val_date
        bool val_lgl
    }
    bottle {
        int cast_id FK
        int bottle_id PK
        varchar site_key
        varchar depth_key
        double depth_m
        smallint btl_num
        varchar rec_ind
        double depth_qual
        varchar inc_tim
        varchar _source_file
        int _source_row
        timestamp _ingested_at
        varchar _source_uuid
    }
    bottle_measurement {
        bigint bottle_measurement_id PK
        double bottle_id FK
        varchar measurement_type FK
        double measurement_value
        double measurement_prec
        varchar measurement_qual
    }
    cast_condition {
        bigint cast_condition_id PK
        double cast_id FK
        varchar condition_type FK
        double condition_value
    }
    casts {
        int cast_id PK
        varchar cast_key
        varchar site_key
        varchar sta_code
        double distance
        double lat_dec
        double lon_dec
        double rpt_line
        double st_line
        double ac_line
        double rpt_sta
        double st_station
        double ac_sta
        double bottom_depth_m
        varchar ship_name
        varchar ship_code
        varchar data_type
        smallint order_occ
        smallint event_num
        varchar cruz_leg
        varchar orig_sta_id
        varchar data_or
        double int_chl
        double int_c14
        varchar inc_str
        varchar inc_end
        varchar pst_lan
        varchar civil_t
        timestamp datetime_utc
        geometry geom
        varchar grid_key FK
        varchar ship_key FK
        varchar cruise_key FK
    }
    cruise {
        uuid cruise_uuid
        date date_ym
        varchar ship_key FK
        varchar _source_file
        int _source_row
        timestamp _ingested_at
        varchar _source_uuid
        varchar cruise_key PK
    }
    cruise_summary {
        varchar cruise_key
        int year
        int month
        varchar ship_name
        varchar ship_nodc
        bigint ichthyo
        bigint bottle
        bigint ctd_cast
        bigint dic
    }
    ctd_cast {
        varchar ctd_cast_uuid PK
        varchar data_stage
        varchar cast_dir
        varchar ord_occ
        double event_num
        varchar cast_key
        timestamp datetime_utc
        double lat_dec
        double lon_dec
        varchar site_key
        varchar line
        varchar sta
        varchar ship_key FK
        varchar cruise_key FK
        geometry geom
        varchar grid_key FK
    }
    ctd_summary {
        varchar ctd_summary_uuid PK
        varchar site_key
        double depth_m
        varchar measurement_type FK
        double avg
        double stddev
        bigint n_obs
        varchar cruise_key
    }
    ctd_thin {
        varchar ctd_thin_uuid PK
        varchar ctd_cast_uuid FK
        double depth_m
        varchar measurement_type FK
        double measurement_value
        varchar measurement_qual
        varchar cast_dir
        varchar retained_reason
        varchar cruise_key
    }
    dataset {
        varchar provider
        varchar dataset
        varchar dataset_name
        varchar description
        varchar citation_main
        varchar citation_others
        varchar link_calcofi_org
        varchar link_data_source
        varchar link_others
        varchar tables
        varchar coverage_temporal
        varchar coverage_spatial
        varchar license
        varchar pi_names
    }
    dic_measurement {
        bigint dic_measurement_id PK
        varchar expocode
        varchar site_key
        timestamp datetime_utc
        double depth_m
        double latitude
        double longitude
        int cast_id
        int bottle_id
        varchar measurement_type FK
        double measurement_value
        varchar measurement_qual
    }
    dic_sample {
        varchar expocode
        varchar ship_name
        timestamp datetime_utc
        varchar site_key
        double latitude
        double longitude
        double depth_m
        int cast_id FK
        int bottle_id FK
        geometry geom
    }
    dic_summary {
        varchar site_key
        timestamp datetime_utc
        double depth_m
        double latitude
        double longitude
        varchar measurement_type FK
        double avg
        double stddev
        bigint n_obs
        int cast_id
        int bottle_id
    }
    grid {
        varchar grid_key PK
        double station
        double line
        varchar shore
        varchar pattern
        int spacing
        varchar zone
        double area_km2
        geometry geom
        geometry geom_ctr
    }
    ichthyo {
        uuid ichthyo_uuid PK
        uuid net_uuid FK
        smallint species_id FK
        varchar life_stage
        varchar measurement_type
        double measurement_value
        int tally
        varchar _source_file
        int _source_row
        timestamp _ingested_at
        varchar _source_uuid
    }
    invert {
        uuid net_uuid FK
        smallint species_id FK
        int tally
        varchar _source_file
        int _source_row
        timestamp _ingested_at
        varchar _source_uuid
    }
    lookup {
        int lookup_id PK
        varchar lookup_type
        int lookup_num
        varchar lookup_chr
        varchar description
        varchar _source_file
        int _source_row
        varchar _ingested_at
        varchar _source_uuid
    }
    measurement_type {
        varchar measurement_type PK
        varchar description
        varchar units
        bool is_canonical
        varchar _source_column
        varchar _source_table
        varchar _source_datasets
        varchar _qual_column
        varchar _prec_column
        varchar provider
        varchar dataset
    }
    net {
        uuid net_uuid PK
        uuid tow_uuid FK
        varchar side
        double std_haul_factor
        double vol_sampled_m3
        double prop_sorted
        double smallplankton
        double totalplankton
        varchar _source_file
        int _source_row
        timestamp _ingested_at
        varchar _source_uuid
    }
    segment {
        varchar cruise_key FK
        uuid site_uuid_beg FK
        uuid site_uuid_end
        double lon_beg
        double lat_beg
        double lon_end
        double lat_end
        timestamp time_beg
        timestamp time_end
        double time_hr
        double length_km
        double km_per_hr
        geometry geom
        int segment_id PK
    }
    ship {
        varchar ship_key PK
        varchar ship_name
        varchar ship_nodc
        varchar _source_file
        int _source_row
        timestamp _ingested_at
        varchar _source_uuid
    }
    site {
        uuid site_uuid PK
        uuid cruise_uuid
        smallint orderocc
        double longitude
        double latitude
        double line
        double station
        varchar _source_file
        int _source_row
        timestamp _ingested_at
        varchar _source_uuid
        varchar cruise_key FK
        geometry geom
        varchar grid_key
        varchar site_key
    }
    species {
        smallint species_id PK
        varchar scientific_name
        int itis_id
        int worms_id
        varchar common_name
        varchar _source_file
        int _source_row
        timestamp _ingested_at
        varchar _source_uuid
        int gbif_id
    }
    taxa_rank {
        varchar taxonRank PK
        smallint rank_order
    }
    taxon {
        varchar authority
        int taxonID PK
        int acceptedNameUsageID
        int parentNameUsageID
        varchar scientificName
        varchar taxonRank FK
        varchar taxonomicStatus
        varchar scientificNameAuthorship
    }
    tow {
        uuid tow_uuid PK
        uuid site_uuid FK
        varchar tow_type_key
        smallint tow_number
        timestamp time_start
        varchar _source_file
        int _source_row
        timestamp _ingested_at
        varchar _source_uuid
    }
    net ||--o{ ichthyo : "net_uuid"
    species ||--o{ ichthyo : "species_id"
    tow ||--o{ net : "tow_uuid"
    site ||--o{ tow : "site_uuid"
    cruise ||--o{ site : "cruise_key"
    ship ||--o{ cruise : "ship_key"
    taxa_rank ||--o{ taxon : "taxonRank"
    cruise ||--o{ segment : "cruise_key"
    site ||--o{ segment : "site_uuid_beg"
    net ||--o{ invert : "net_uuid"
    species ||--o{ invert : "species_id"
    casts ||--o{ bottle : "cast_id"
    bottle ||--o{ bottle_measurement : "bottle_id"
    measurement_type ||--o{ bottle_measurement : "measurement_type"
    casts ||--o{ cast_condition : "cast_id"
    measurement_type ||--o{ cast_condition : "condition_type"
    ctd_cast ||--o{ ctd_thin : "ctd_cast_uuid"
    measurement_type ||--o{ ctd_thin : "measurement_type"
    measurement_type ||--o{ ctd_summary : "measurement_type"
    measurement_type ||--o{ dic_measurement : "measurement_type"
    measurement_type ||--o{ dic_summary : "measurement_type"
    cruise ||--o{ casts : "cruise_key"
    ship ||--o{ casts : "ship_key"
    grid ||--o{ casts : "grid_key"
    cruise ||--o{ ctd_cast : "cruise_key"
    ship ||--o{ ctd_cast : "ship_key"
    grid ||--o{ ctd_cast : "grid_key"
    casts ||--o{ dic_sample : "cast_id"
    bottle ||--o{ dic_sample : "bottle_id"
    classDef _f5cad9 stroke:#f5cad9,stroke-width:3px
    class casts,bottle,bottle_measurement,cast_condition _f5cad9
    classDef _e8e8e8 stroke:#e8e8e8,stroke-width:3px
    class measurement_type,dataset,cruise_summary _e8e8e8
    classDef _e0ccf0 stroke:#e0ccf0,stroke-width:3px
    class ctd_cast,ctd_thin,ctd_summary _e0ccf0
    classDef _ffd2bb stroke:#ffd2bb,stroke-width:3px
    class dic_sample,dic_measurement,dic_summary _ffd2bb
    classDef _cdebc6 stroke:#cdebc6,stroke-width:3px
    class cruise,ship,site,tow,net,ichthyo,species,taxon,taxa_rank,lookup,grid,segment,invert _cdebc6
    classDef _cfe8ea stroke:#cfe8ea,stroke-width:3px
    class _spatial,_spatial_attr _cfe8ea
